# xmcd
#
# Track frame offsets:
#	150
#	17410
#	34392
#	49715
#	65172
#	75485
#	87707
#	100515
#	111982
#	126255
#	143977
#	161205
#	173537
#	184125
#	197187
#	212030
#
# Disc length: 2969 seconds
#
# Revision: 0
# Processed by: cddbd v1.5.2PL0 Copyright (c) Steve Scherf et al.
# Submitted via: audiograbber 1.83.01
#
DISCID=e40b9710
DTITLE=Various Artist - Champagne Country
DYEAR=1900
DGENRE=Country
TTITLE0=Willie Nelson - Stardust
TTITLE1=Crystal Gayle - Miss the Mississippi and You
TTITLE2=Kris Kristofferson - For the Good Times
TTITLE3=Sweet Music Man - Tammy Wynette
TTITLE4=Always - Willie Nelson and Leon Russel
TTITLE5=Charlie Rich - The Most Beautiful Girl
TTITLE6=George Jones and Emmylou Harris - Here We Are
TTITLE7=Johny Cash - A thing called love
TTITLE8=Kris Kristofferson and Rita Coolidge - The thing I might have been
TTITLE9=Tanya Tucker - The best of my life
TTITLE10=Willie Nelson and Ray Price - Faded Love
TTITLE11=Charlie Rich - A very special Love Song
TTITLE12=George Jones and Tammy Wynette - Near you
TTITLE13=Bobby Goldsboro - Me and the Elephant
TTITLE14=Janie Fricke - Please help me I'm Falling
TTITLE15=Marty Robbins - I don't know why
EXTD=
EXTT0=
EXTT1=
EXTT2=
EXTT3=
EXTT4=
EXTT5=
EXTT6=
EXTT7=
EXTT8=
EXTT9=
EXTT10=
EXTT11=
EXTT12=
EXTT13=
EXTT14=
EXTT15=
PLAYORDER=
